<?xml version="1.0" encoding="UTF-8"?>
<svg xmlns="http://www.w3.org/2000/svg" id="Ebene_1" data-name="Ebene 1" viewBox="0 0 200 240">
  <defs>
    <style>
      .cls-1 {
        fill: none;
      }

      .cls-1, .cls-2 {
        stroke-width: 0px;
      }

      .cls-2 {
        fill: #3f0fe5;
      }
    </style>
  </defs>
  <g>
    <path class="cls-2" d="M109.46,69.18c-5.39-2.81-9.99-7.94-25.77-11.23,0,0-.71-.15-2.34-.36-11.04-2.34-21.18-2.85-36.26,1.56C9.96,69.42,2.03,103.18,6.2,132.58c4.16,29.41-1.38,33.28-5.28,42.67-3.89,9.4,5.04,10.41,16.44,7.45,10.28-2.68,16.36-11.76,24.61-17.66,9.57-6.84,22.37-12.52,34.28-12.51,13.59,0,24.6-9.96,25.46-10.62.77-.59,3.97-4.1,10.33-5.96-13.11-32.63-6.09-57.73-2.59-66.77Z"></path>
    <path class="cls-2" d="M120.16,71.09c-.83.06-1.6.09-2.32.09-1.17,2.85-3.41,9.17-4.39,18.04-1.16,10.48-.72,26.63,7.32,45.58,2.25.02,4.72.25,7.42.78,11.64,2.26,23.76-3.92,34.9-10.72,8.59-5.26,18.78-28.1,24.18-33.72,6.35-6.6,12.59-11.62,12.73-13.87.57-8.96-45.84-8.79-79.83-6.19Z"></path>
  </g>
  <rect class="cls-1" x="98.13" y="236.26" width="3.74" height="3.74"></rect>
  <rect class="cls-1" x="98.13" width="3.74" height="3.74"></rect>
</svg>
