<?xml version="1.0" encoding="UTF-8"?>
<svg xmlns="http://www.w3.org/2000/svg" width="74" height="74" viewBox="0 0 74 74">
  <path data-name="Path 350" d="M48.689 20.935a3.352 3.352 0 1 0-3.352-3.352 3.352 3.352 0 0 0 3.352 3.352z" style="fill:#3f0fe5"></path>
  <path data-name="Path 351" d="M19.336 37.908a2.9 2.9 0 1 0-2.9 2.9 2.9 2.9 0 0 0 2.9-2.9z" style="fill:#3f0fe5"></path>
  <path data-name="Path 352" d="M19.336 47.479a3.08 3.08 0 1 0 3.08 3.081 3.08 3.08 0 0 0-3.08-3.081z" style="fill:#3f0fe5"></path>
  <circle data-name="Ellipse 49" cx="3.489" cy="3.489" r="3.489" transform="translate(30.295 55.586)" style="fill:#3f0fe5"></circle>
  <circle data-name="Ellipse 50" cx="3.64" cy="3.64" r="3.64" transform="translate(34.342 25.901)" style="fill:#3f0fe5"></circle>
  <path data-name="Path 353" d="M25.5 24.74a2.446 2.446 0 1 0-2.446-2.446A2.446 2.446 0 0 0 25.5 24.74z" style="fill:#3f0fe5"></path>
  <path data-name="Path 354" d="M44.159 49.11a2.536 2.536 0 1 0 2.541 2.537 2.537 2.537 0 0 0-2.541-2.537z" style="fill:#3f0fe5"></path>
  <path data-name="Path 355" d="M48.689 38.649a2.159 2.159 0 1 0 2.158 2.158 2.159 2.159 0 0 0-2.158-2.158z" style="fill:#3f0fe5"></path>
  <path data-name="Path 356" d="M28.081 36.064a2.584 2.584 0 1 0-2.581 2.585 2.584 2.584 0 0 0 2.581-2.585z" style="fill:#3f0fe5"></path>
  <path data-name="Path 357" d="M38.9 39.869a1.993 1.993 0 1 0 2 1.994 1.994 1.994 0 0 0-2-1.994z" style="fill:#3f0fe5"></path>
  <path data-name="Path 358" d="M26.765 43.4a2.264 2.264 0 1 0 2.265 2.265 2.265 2.265 0 0 0-2.265-2.265z" style="fill:#3f0fe5"></path>
  <path data-name="Path 359" d="M11.182 24.649A2.356 2.356 0 1 0 13.538 27a2.355 2.355 0 0 0-2.356-2.351z" style="fill:#3f0fe5"></path>
  <path data-name="Path 360" d="M50.847 27.178a2.182 2.182 0 1 0 2.182 2.182 2.182 2.182 0 0 0-2.182-2.182z" style="fill:#3f0fe5"></path>
  <path data-name="Path 361" d="M58.292 35.009a2.9 2.9 0 1 0 2.9 2.9 2.9 2.9 0 0 0-2.9-2.9z" style="fill:#3f0fe5"></path>
  <path data-name="Path 362" d="M37 0a37 37 0 1 0 37 37A37 37 0 0 0 37 0zm-2.658 67.9a29.99 29.99 0 1 1 29.989-29.99A29.99 29.99 0 0 1 34.342 67.9z" style="fill:#3f0fe5"></path>
</svg>
