<?xml version="1.0" encoding="UTF-8"?>
<svg xmlns="http://www.w3.org/2000/svg" id="Ebene_1" data-name="Ebene 1" viewBox="0 0 200 240">
  <defs>
    <style>
      .cls-1, .cls-2 {
        fill: none;
      }

      .cls-1, .cls-3 {
        stroke-width: 0px;
      }

      .cls-2 {
        stroke: #3f0fe5;
        stroke-linecap: round;
        stroke-miterlimit: 10;
        stroke-width: 8.5px;
      }

      .cls-3 {
        fill: #3f0fe5;
      }
    </style>
  </defs>
  <g>
    <path class="cls-2" d="M139.04,136.56c10.92-3.91,22.88-11.07,32.79-24.21,4.15-5.51,7.97-14.57,12.53-21.27,5.02-7.38,11.22-9.76,11.22-19.96,0-14.33-63.65-4.22-86.81-8.01-41.62-6.8-73.69-15.06-97.44,25.05-17.02,26.19,2.98,62.1,4.51,84.92,2.19,25.15,38.3,18.3,59.4,3.06"></path>
    <path class="cls-3" d="M123.67,178.29c4.27-5.77,5.55-33.03-8.6-31.22-6.11.56-8.74,2.64-8.88,5.13s-1.92,12.35-3.89,15.54c-2.85,4.62-8.19,7.49-11.79,6.8-19.65-4.82-2.23-31.84,11.1-34,7.08-1.11,12.21-.56,12.21-.56-7.87-8.72-31.87-12.55-41.07-2.64-2.78,3.33-8.88,8.88-9.99,10.27s-6.4,2.54-4.72-1.39c1.03-2.39,2.7-4.46,4.55-6.26-6.22,2.6-12.28,5.15-18.88,6.73-1.25.3-2.61.56-3.78.04s-1.89-2.19-1.02-3.14c.31-.34.75-.52,1.18-.7,4.35-1.75,8.7-3.5,13.05-5.26-1.18.48-5.69-1.83-6.94-2.27-2.57-.9-5.11-1.87-7.63-2.89-2.07-.84-11.76-4.13-6.79-7.47,1.8-1.21,6.7,1.08,8.37,1.83,2.94,1.31,5.71,2.99,8.77,4.01,10.15,3.38,21.19.36,30.06-5.01-.48.29-3.52-1.33-4.03-1.52-1.81-.65-3.65-1.22-5.57-1.39-5.45-.48-11.03,1.4-16.57,1.22-1.62-.05-10.75-.6-10.04-4,.76-3.67,5.16-2.86,7.87-2.39,4.19.71,9.08.82,13.12-.67.11-.04-4.61-4.15-5.13-4.49-5-3.24-10.44-6.29-16.04-8.61-2.62-1.08-5.19-2.02-7.97-2.48-1.89-.32-5.24-.68-6.14-2.72-3.53-8.01,8.78-2.26,14.01-.83,12.23,5.73,21.17,11.56,31.91,17.35-.92-.49-1.25-4.93-1.36-5.81-.43-3.42-.26-7.08-.14-10.52.07-1.87.61-3.78,3.03-3.38.83.14,2.22,1.67,2.36,5.97.5,12.2,4.93,18.67,16.1,20.81-.28-1.63-9.86-18.04-3.75-19.57,3.54-.88,5.91,8.31,6.8,10.52,2.88,7.19,8.82,11.21,15.54,14.46,0,0,4.3-8.46,5.41-11.24,1.11-2.78,4.16-5.13,2.78-7.35s-8.74-7.91-11.93-9.02-9.57-4.16-8.46-6.52,4.72-.56,4.72-.56c2.4,1.19,12.68,6.27,14.99,7.08.41-1.71.74-17.17,5.97-16.51,3.19.42,1.8,3.61,1.53,4.58s-1.53,9.85-.97,12.49,1.66,8.19,1.67,8.19c-.29-1.46,11.35-6.46,12.76-7.24,4.96-2.76,9.55-6.1,13.81-9.84,2.9-2.55,8.67-10.82,13.12-6.78.97,1.67-.56,4.86-2.78,6.66-2.59,2.34-13.89,13.88-17.9,14.29,3.04-.09,14.3-.3,17.75.67,1.54.43,1.68,3.36.69,4.28-.54.5-1.32.6-2.05.67-7.23.73-14.52.6-21.75,1.26-3.3.3-6.72,1.24-9.03,3.62-2.21,2.28-3.75,5.55-5.48,8.22-1.06,1.64-4.54,6.28-3.31,8.47,8.78,15.59,16.98,24.65,9.16,42.88,0,0,3.05-5.55,6.38-4.86,3.33.69,3.89,4.29,2.5,7.22s-6.24,5.97-6.24,5.97c0,0,5.09-.93,8.46.69,4.34,2.09,6.07,3.55,6.23,7.01.15,3.33.49,6.61-6.09,8.94-16.49,5.84-39.84-5.95-38.02-23.87,1.06-10.39,17.51-8.92,16.79,1.11Z"></path>
  </g>
  <rect class="cls-1" x="98.13" width="3.74" height="3.74"></rect>
  <rect class="cls-1" x="98.13" y="236.26" width="3.74" height="3.74"></rect>
</svg>
