<?xml version="1.0" encoding="UTF-8"?>
<svg xmlns="http://www.w3.org/2000/svg" width="75" height="74" viewBox="0 0 75 74">
  <path data-name="Subtraction 7" d="M11865.839 14471.5h-.011a11.913 11.913 0 0 1-3.141-.425l-6.883-1.859a11.348 11.348 0 0 1-5.946-3.885 10.37 10.37 0 0 1-2.292-6.5l.012-10.257 9.927 6.708a.916.916 0 0 0 1.271-.261l1.027-1.566a.926.926 0 0 0-.247-1.289l-19.382-13.095-19.378 13.1a.906.906 0 0 0-.392.585.94.94 0 0 0 .145.705l1.028 1.565a.9.9 0 0 0 .577.4 1.108 1.108 0 0 0 .185.017.941.941 0 0 0 .51-.147l9.927-6.719v10.253a10.37 10.37 0 0 1-2.292 6.5 11.348 11.348 0 0 1-5.946 3.885l-6.883 1.863a11.945 11.945 0 0 1-3.149.425 11.673 11.673 0 0 1-4.327-.827 11.468 11.468 0 0 1-3.612-2.279 10.45 10.45 0 0 1-3.394-7.7 13.441 13.441 0 0 1 .447-3.473 96.129 96.129 0 0 1 6.452-17.454 2.934 2.934 0 0 1 .743.654 2.987 2.987 0 0 0 4.639 0 2.963 2.963 0 0 1 2.32-1.1 3.033 3.033 0 0 1 .777.1 2.984 2.984 0 0 0 2.815-.708 2.738 2.738 0 0 0 .516-.644 1.009 1.009 0 0 0 .088-.156c.017-.035.031-.063.047-.091a3.049 3.049 0 0 0 .283-1.126 2.963 2.963 0 0 1 1.914-2.637 2.988 2.988 0 0 0 1.431-4.413 3 3 0 0 1 0-3.255 3 3 0 0 0-.267-3.611 8.223 8.223 0 0 1 5.251 2.453 7.493 7.493 0 0 1 2.143 5.23v7.043l3.8-2.575a1.884 1.884 0 0 0 .821-1.562v-19.988a1.868 1.868 0 0 1 1.853-1.878h1.849a1.866 1.866 0 0 1 1.849 1.878v19.988a1.851 1.851 0 0 0 .824 1.555l3.8 2.572v-7.043a7.475 7.475 0 0 1 2.369-5.45 8.249 8.249 0 0 1 5.72-2.254c4.645 0 6.458 2.9 8.753 6.578l.219.349.294.468a96.553 96.553 0 0 1 11.79 27.068 13.107 13.107 0 0 1 .454 3.483 10.455 10.455 0 0 1-3.395 7.7 11.476 11.476 0 0 1-3.614 2.278 11.683 11.683 0 0 1-4.319.824z" transform="translate(-11802.676 -14404.5)" style="stroke:transparent;stroke-miterlimit:10;fill:#3f0fe5"></path>
  <path data-name="Path 268" d="M70.535 59.149a2.3 2.3 0 0 0-1.1-3.4 2.284 2.284 0 0 1-1.473-2.027 2.363 2.363 0 0 0-.217-.866 2.238 2.238 0 0 0-.225-.372 2.039 2.039 0 0 0-.286-.321 4.5 4.5 0 0 0-.329-.26 2.391 2.391 0 0 0-.589-.26.913.913 0 0 0-.208-.052c-.035-.009-.061-.009-.1-.017H66a2 2 0 0 0-.32-.026 2.359 2.359 0 0 0-.6.078 2.359 2.359 0 0 1-.6.078 2.292 2.292 0 0 1-1.784-.849 1.785 1.785 0 0 0-.217-.225.69.69 0 0 0-.147-.13l-.035-.035a.927.927 0 0 0-.191-.13 1.1 1.1 0 0 0-.225-.113 5.869 5.869 0 0 0-.234-.1 1.982 1.982 0 0 0-.243-.069 2.371 2.371 0 0 0-.987 0 1.982 1.982 0 0 0-.243.069 1.808 1.808 0 0 0-.234.1 1.1 1.1 0 0 0-.225.113.927.927 0 0 0-.191.13l-.035.035a.69.69 0 0 0-.147.13 1.786 1.786 0 0 0-.217.225 2.305 2.305 0 0 1-1.784.849 2.359 2.359 0 0 1-.6-.078 2.411 2.411 0 0 0-.6-.078 2 2 0 0 0-.321.026h-.017c-.035.009-.061.009-.1.017a1.013 1.013 0 0 0-.173.043c-.009 0-.026.009-.035.009h.005a1.723 1.723 0 0 0-.295.113 2.957 2.957 0 0 0-.286.147 2.294 2.294 0 0 0-.624.58 3.2 3.2 0 0 0-.217.372 1.382 1.382 0 0 0-.087.2 1.982 1.982 0 0 0-.069.243.44.44 0 0 0-.026.147.11.11 0 0 0-.009.052 1 1 0 0 0-.026.225 2.3 2.3 0 0 1-1.473 2.027 2.3 2.3 0 0 0-1.109 3.4 2.267 2.267 0 0 1 0 2.5 2.3 2.3 0 0 0 1.109 3.4 2.3 2.3 0 0 1 1.473 2.027 2.122 2.122 0 0 0 .13.667 1.982 1.982 0 0 0 .087.2 3.2 3.2 0 0 0 .217.372 1.889 1.889 0 0 0 .217.243c.069.069.156.139.234.208A3.138 3.138 0 0 0 55.1 69a1.984 1.984 0 0 0 .2.087 1.815 1.815 0 0 0 .2.069.984.984 0 0 0 .217.052.544.544 0 0 0 .165.026c.087.009.182.017.269.017a2.41 2.41 0 0 0 .6-.078 2.359 2.359 0 0 1 .6-.078 2.305 2.305 0 0 1 1.784.849 2.3 2.3 0 0 0 3.569 0 2.292 2.292 0 0 1 1.784-.849 2.359 2.359 0 0 1 .6.078 2.359 2.359 0 0 0 .6.078 2.29 2.29 0 0 0 1.568-.624 2 2 0 0 0 .4-.494 2.065 2.065 0 0 0 .1-.191 2.363 2.363 0 0 0 .217-.866 2.284 2.284 0 0 1 1.473-2.027 2.3 2.3 0 0 0 1.1-3.4 2.3 2.3 0 0 1 0-2.5" transform="translate(-50.45 -37.004)" style="fill:#3f0fe5"></path>
  <path data-name="Path 267" d="M60.435 60.436a2.6 2.6 0 1 1 0-3.675 2.6 2.6 0 0 1 0 3.675m4.582 4.585a1.732 1.732 0 1 1 0-2.45 1.732 1.732 0 0 1 0 2.45" transform="translate(-51.131 -37.805)" style="fill:#fff"></path>
</svg>
