<svg preserveAspectRatio="none" width="100%" height="100%" overflow="visible" style="display: block;" viewBox="0 0 326 326" fill="none" xmlns="http://www.w3.org/2000/svg">
<g id="pie chart">
<path id="88% Ellipse" d="M244.114 274.644C226.496 287.445 206.098 295.894 184.588 299.301C163.078 302.708 141.068 300.976 120.356 294.246C99.6437 287.516 80.8185 275.98 65.4193 260.581C50.02 245.181 38.4839 226.356 31.7542 205.644C25.0245 184.932 23.2922 162.922 26.699 141.412C30.1058 119.902 38.555 99.5042 51.3557 81.8856C64.1564 64.267 80.9452 49.928 100.349 40.0411C119.754 30.1541 141.222 25 163 25" stroke="var(--stroke-0, #75BDB2)" stroke-width="50"/>
<path id="Rest% Ellipse" d="M163 25C192.143 25 220.537 34.226 244.114 51.3557C267.691 68.4853 285.24 92.6393 294.246 120.356C303.251 148.072 303.251 177.928 294.246 205.644C285.24 233.361 267.691 257.515 244.114 274.644" stroke="var(--stroke-0, #75BDB2)" stroke-width="50"/>
</g>
</svg>
