<svg preserveAspectRatio="none" width="100%" height="100%" overflow="visible" style="display: block;" viewBox="0 0 326 326" fill="none" xmlns="http://www.w3.org/2000/svg">
<g id="pie chart">
<path id="88% Ellipse" d="M26.0286 179.818C23.6421 160.381 25.4196 140.659 31.243 121.962C37.0664 103.265 46.8024 86.0221 59.8039 71.3782C72.8054 56.7343 88.7746 45.0251 106.65 37.0289C124.526 29.0327 143.899 24.9325 163.482 25.0008" stroke="var(--stroke-0, #75BDB2)" stroke-width="50"/>
<path id="Rest% Ellipse" d="M163 25C189.593 25 215.619 32.6834 237.948 47.1259C260.277 61.5684 277.958 82.1548 288.863 106.409C299.768 130.662 303.433 157.551 299.418 183.838C295.402 210.126 283.877 234.694 266.228 254.586C248.58 274.478 225.559 288.847 199.937 295.965C174.315 303.083 147.181 302.646 121.801 294.707C96.4214 286.768 73.8758 271.665 56.8768 251.215C39.8777 230.765 29.1493 205.839 25.9822 179.435" stroke="var(--stroke-0, #75BDB2)" stroke-width="50"/>
</g>
</svg>
