<svg preserveAspectRatio="none" width="100%" height="100%" overflow="visible" style="display: block;" viewBox="0 0 326 326" fill="none" xmlns="http://www.w3.org/2000/svg">
<g id="pie chart">
<path id="88% Ellipse" d="M205.645 31.7542C238.671 42.485 266.437 65.2724 283.405 95.5703C300.372 125.868 305.294 161.449 297.187 195.215C289.081 228.982 268.542 258.45 239.669 277.743C210.796 297.035 175.71 304.733 141.412 299.301C107.114 293.869 76.1249 275.706 54.6265 248.435C33.1281 221.164 22.7012 186.791 25.4257 152.173C28.1503 117.554 43.8261 85.2352 69.3259 61.6634C94.8257 38.0917 128.275 25 163 25" stroke="var(--stroke-0, #75BDB2)" stroke-width="50"/>
<path id="Rest% Ellipse" d="M163 25C177.481 25 191.872 27.2793 205.645 31.7542" stroke="var(--stroke-0, #75BDB2)" stroke-width="50"/>
</g>
</svg>
